<svg width="14" height="13" viewBox="0 0 14 13" fill="none" xmlns="http://www.w3.org/2000/svg">
<path d="M3.02656 10C3.05781 10 3.08906 9.99687 3.12031 9.99219L5.74844 9.53125C5.77969 9.525 5.80938 9.51094 5.83125 9.4875L12.4547 2.86406C12.4692 2.84961 12.4807 2.83244 12.4885 2.81354C12.4963 2.79463 12.5004 2.77437 12.5004 2.75391C12.5004 2.73344 12.4963 2.71318 12.4885 2.69428C12.4807 2.67538 12.4692 2.65821 12.4547 2.64375L9.85781 0.0453125C9.82812 0.015625 9.78906 0 9.74687 0C9.70469 0 9.66563 0.015625 9.63594 0.0453125L3.0125 6.66875C2.98906 6.69219 2.975 6.72031 2.96875 6.75156L2.50781 9.37969C2.49261 9.46339 2.49804 9.54954 2.52364 9.63067C2.54923 9.71181 2.59421 9.78548 2.65469 9.84531C2.75781 9.94531 2.8875 10 3.02656 10ZM4.07969 7.275L9.74687 1.60938L10.8922 2.75469L5.225 8.42031L3.83594 8.66562L4.07969 7.275ZM12.75 11.3125H1.25C0.973437 11.3125 0.75 11.5359 0.75 11.8125V12.375C0.75 12.4438 0.80625 12.5 0.875 12.5H13.125C13.1938 12.5 13.25 12.4438 13.25 12.375V11.8125C13.25 11.5359 13.0266 11.3125 12.75 11.3125Z" fill="#E6E6E6"/>
</svg>
