<svg width="14" height="12" viewBox="0 0 14 12" fill="none" xmlns="http://www.w3.org/2000/svg">
<path d="M11.8676 9.06977H10.8867C10.8197 9.06977 10.7569 9.09907 10.7151 9.1507C10.6174 9.26931 10.5128 9.38373 10.4025 9.49256C9.95167 9.94386 9.41764 10.3035 8.82996 10.5516C8.22111 10.8088 7.56671 10.9407 6.90578 10.9395C6.23741 10.9395 5.58997 10.8084 4.9816 10.5516C4.39392 10.3035 3.85989 9.94386 3.40904 9.49256C2.95739 9.04279 2.59726 8.50969 2.34858 7.9228C2.09044 7.31443 1.96068 6.66838 1.96068 6.00001C1.96068 5.33164 2.09184 4.68559 2.34858 4.07722C2.59695 3.48978 2.95416 2.96095 3.40904 2.50746C3.86393 2.05397 4.39276 1.69676 4.9816 1.44839C5.58997 1.19165 6.23741 1.06048 6.90578 1.06048C7.57415 1.06048 8.22159 1.19025 8.82996 1.44839C9.4188 1.69676 9.94764 2.05397 10.4025 2.50746C10.5128 2.61769 10.616 2.73211 10.7151 2.84932C10.7569 2.90095 10.8211 2.93025 10.8867 2.93025H11.8676C11.9555 2.93025 12.01 2.83257 11.9611 2.75862C10.8909 1.09537 9.01834 -0.00556026 6.89043 2.11237e-05C3.54718 0.0083932 0.866724 2.72234 0.900213 6.06141C0.933701 9.34745 3.60998 12 6.90578 12C9.0281 12 10.8923 10.9005 11.9611 9.2414C12.0086 9.16745 11.9555 9.06977 11.8676 9.06977ZM13.1081 5.9121L11.1281 4.34932C11.0541 4.29071 10.9467 4.34373 10.9467 4.43722V5.49769H6.56532C6.50392 5.49769 6.45369 5.54792 6.45369 5.60931V6.39071C6.45369 6.4521 6.50392 6.50234 6.56532 6.50234H10.9467V7.5628C10.9467 7.65629 11.0555 7.70931 11.1281 7.6507L13.1081 6.08792C13.1214 6.07748 13.1322 6.06413 13.1396 6.0489C13.1471 6.03367 13.1509 6.01695 13.1509 6.00001C13.1509 5.98307 13.1471 5.96635 13.1396 5.95112C13.1322 5.93589 13.1214 5.92255 13.1081 5.9121Z" fill="#E6E6E6"/>
</svg>
