<svg width="14" height="14" viewBox="0 0 14 14" fill="none" xmlns="http://www.w3.org/2000/svg">
<path d="M12.9449 8.65241L11.9945 7.83985C12.0394 7.56416 12.0627 7.28267 12.0627 7.00118C12.0627 6.71968 12.0394 6.43819 11.9945 6.1625L12.9449 5.34995C13.0166 5.28858 13.0679 5.20684 13.092 5.11561C13.1161 5.02437 13.1118 4.92796 13.0798 4.8392L13.0668 4.80147C12.8051 4.07021 12.4133 3.39232 11.9103 2.80055L11.8842 2.77008C11.8232 2.69833 11.7418 2.64675 11.6509 2.62215C11.56 2.59754 11.4638 2.60106 11.3749 2.63224L10.1952 3.05157C9.75994 2.69463 9.27385 2.41314 8.74859 2.2158L8.52079 0.982455C8.5036 0.889653 8.45858 0.804277 8.39172 0.73767C8.32485 0.671062 8.2393 0.626377 8.14643 0.60955L8.10726 0.602295C7.35129 0.465902 6.55614 0.465902 5.80018 0.602295L5.761 0.60955C5.66813 0.626377 5.58258 0.671062 5.51571 0.73767C5.44885 0.804277 5.40383 0.889653 5.38664 0.982455L5.15739 2.2216C4.63632 2.41898 4.15107 2.70032 3.7209 3.05447L2.53254 2.63224C2.44369 2.60081 2.34738 2.59717 2.25641 2.62179C2.16544 2.64641 2.08411 2.69813 2.02324 2.77008L1.99712 2.80055C1.49471 3.39274 1.10298 4.07051 0.84068 4.80147L0.827621 4.8392C0.762326 5.02057 0.816013 5.22371 0.962563 5.34995L1.92457 6.17121C1.87959 6.444 1.85783 6.72259 1.85783 6.99973C1.85783 7.27832 1.87959 7.55691 1.92457 7.82824L0.962563 8.64951C0.890878 8.71087 0.839572 8.79261 0.815467 8.88384C0.791363 8.97508 0.795602 9.07149 0.827621 9.16026L0.84068 9.19798C1.10331 9.92928 1.49218 10.604 1.99712 11.1989L2.02324 11.2294C2.08426 11.3011 2.16559 11.3527 2.2565 11.3773C2.34742 11.4019 2.44366 11.3984 2.53254 11.3672L3.7209 10.945C4.1533 11.3005 4.63648 11.582 5.15739 11.7778L5.38664 13.017C5.40383 13.1098 5.44885 13.1952 5.51571 13.2618C5.58258 13.3284 5.66813 13.3731 5.761 13.3899L5.80018 13.3972C6.56309 13.5343 7.34434 13.5343 8.10726 13.3972L8.14643 13.3899C8.2393 13.3731 8.32485 13.3284 8.39172 13.2618C8.45858 13.1952 8.5036 13.1098 8.52079 13.017L8.74859 11.7837C9.27364 11.5868 9.76247 11.3044 10.1952 10.9479L11.3749 11.3672C11.4637 11.3986 11.5601 11.4023 11.651 11.3777C11.742 11.353 11.8233 11.3013 11.8842 11.2294L11.9103 11.1989C12.4153 10.6025 12.8041 9.92928 13.0668 9.19798L13.0798 9.16026C13.1451 8.98178 13.0914 8.77864 12.9449 8.65241ZM10.9643 6.33372C11.0005 6.55282 11.0194 6.77772 11.0194 7.00263C11.0194 7.22753 11.0005 7.45244 10.9643 7.67154L10.8685 8.25338L11.9524 9.18057C11.7881 9.55912 11.5807 9.91746 11.3343 10.2485L9.98774 9.77112L9.53213 10.1455C9.18534 10.4299 8.79938 10.6533 8.38149 10.81L7.82866 11.0175L7.56894 12.425C7.15913 12.4714 6.7454 12.4714 6.33559 12.425L6.07586 11.0146L5.52739 10.8042C5.11386 10.6475 4.72934 10.4241 4.38546 10.1411L3.92984 9.76532L2.57462 10.247C2.32795 9.91477 2.12191 9.55638 1.95649 9.17912L3.05199 8.24323L2.95768 7.66283C2.92286 7.44663 2.90399 7.22318 2.90399 7.00263C2.90399 6.78063 2.9214 6.55862 2.95768 6.34243L3.05199 5.76203L1.95649 4.82614C2.12046 4.44743 2.32795 4.09048 2.57462 3.75821L3.92984 4.23994L4.38546 3.86413C4.72934 3.58118 5.11386 3.35773 5.52739 3.20102L6.07731 2.99353L6.33704 1.58317C6.74477 1.53673 7.16121 1.53673 7.57039 1.58317L7.83011 2.99063L8.38294 3.19812C8.79938 3.35483 9.18679 3.57828 9.53358 3.86268L9.98919 4.23703L11.3357 3.75966C11.5824 4.09193 11.7884 4.45033 11.9538 4.82759L10.8699 5.75477L10.9643 6.33372ZM6.95517 4.30378C5.5448 4.30378 4.40142 5.44716 4.40142 6.85753C4.40142 8.26789 5.5448 9.41128 6.95517 9.41128C8.36553 9.41128 9.50891 8.26789 9.50891 6.85753C9.50891 5.44716 8.36553 4.30378 6.95517 4.30378ZM8.10435 8.00672C7.95363 8.15788 7.7745 8.27774 7.57728 8.35942C7.38006 8.4411 7.16863 8.48297 6.95517 8.48264C6.52132 8.48264 6.11359 8.31288 5.80598 8.00672C5.65482 7.85599 5.53495 7.67686 5.45328 7.47964C5.3716 7.28242 5.32972 7.07099 5.33005 6.85753C5.33005 6.42368 5.49982 6.01595 5.80598 5.70834C6.11359 5.40073 6.52132 5.23242 6.95517 5.23242C7.38901 5.23242 7.79674 5.40073 8.10435 5.70834C8.25551 5.85907 8.37538 6.03819 8.45706 6.23542C8.53873 6.43264 8.58061 6.64406 8.58028 6.85753C8.58028 7.29138 8.41051 7.69911 8.10435 8.00672Z" fill="white"/>
</svg>
